<svg id="visual" viewBox="0 0 900 600" width="900" height="600" xmlns="http://www.w3.org/2000/svg" xmlns:xlink="http://www.w3.org/1999/xlink" version="1.1"><rect x="0" y="0" width="900" height="600" fill="#393E46"></rect><path d="M0 468L21.5 463.7C43 459.3 86 450.7 128.8 435.2C171.7 419.7 214.3 397.3 257.2 382.8C300 368.3 343 361.7 385.8 372.7C428.7 383.7 471.3 412.3 514.2 420.5C557 428.7 600 416.3 642.8 412C685.7 407.7 728.3 411.3 771.2 401C814 390.7 857 366.3 878.5 354.2L900 342L900 601L878.5 601C857 601 814 601 771.2 601C728.3 601 685.7 601 642.8 601C600 601 557 601 514.2 601C471.3 601 428.7 601 385.8 601C343 601 300 601 257.2 601C214.3 601 171.7 601 128.8 601C86 601 43 601 21.5 601L0 601Z" fill="#6d9886"></path><path d="M0 431L21.5 426.2C43 421.3 86 411.7 128.8 414.8C171.7 418 214.3 434 257.2 449.5C300 465 343 480 385.8 473.2C428.7 466.3 471.3 437.7 514.2 423.7C557 409.7 600 410.3 642.8 415.3C685.7 420.3 728.3 429.7 771.2 442.8C814 456 857 473 878.5 481.5L900 490L900 601L878.5 601C857 601 814 601 771.2 601C728.3 601 685.7 601 642.8 601C600 601 557 601 514.2 601C471.3 601 428.7 601 385.8 601C343 601 300 601 257.2 601C214.3 601 171.7 601 128.8 601C86 601 43 601 21.5 601L0 601Z" fill="#91ac93"></path><path d="M0 446L21.5 453.8C43 461.7 86 477.3 128.8 479.8C171.7 482.3 214.3 471.7 257.2 461.7C300 451.7 343 442.3 385.8 447.8C428.7 453.3 471.3 473.7 514.2 488C557 502.3 600 510.7 642.8 515.7C685.7 520.7 728.3 522.3 771.2 508C814 493.7 857 463.3 878.5 448.2L900 433L900 601L878.5 601C857 601 814 601 771.2 601C728.3 601 685.7 601 642.8 601C600 601 557 601 514.2 601C471.3 601 428.7 601 385.8 601C343 601 300 601 257.2 601C214.3 601 171.7 601 128.8 601C86 601 43 601 21.5 601L0 601Z" fill="#b4bfa4"></path><path d="M0 477L21.5 490C43 503 86 529 128.8 537.7C171.7 546.3 214.3 537.7 257.2 527.2C300 516.7 343 504.3 385.8 507.3C428.7 510.3 471.3 528.7 514.2 537C557 545.3 600 543.7 642.8 535.8C685.7 528 728.3 514 771.2 502.7C814 491.3 857 482.7 878.5 478.3L900 474L900 601L878.5 601C857 601 814 601 771.2 601C728.3 601 685.7 601 642.8 601C600 601 557 601 514.2 601C471.3 601 428.7 601 385.8 601C343 601 300 601 257.2 601C214.3 601 171.7 601 128.8 601C86 601 43 601 21.5 601L0 601Z" fill="#d5d2ba"></path><path d="M0 522L21.5 522C43 522 86 522 128.8 527.2C171.7 532.3 214.3 542.7 257.2 543.3C300 544 343 535 385.8 538.3C428.7 541.7 471.3 557.3 514.2 558.5C557 559.7 600 546.3 642.8 545.7C685.7 545 728.3 557 771.2 556.2C814 555.3 857 541.7 878.5 534.8L900 528L900 601L878.5 601C857 601 814 601 771.2 601C728.3 601 685.7 601 642.8 601C600 601 557 601 514.2 601C471.3 601 428.7 601 385.8 601C343 601 300 601 257.2 601C214.3 601 171.7 601 128.8 601C86 601 43 601 21.5 601L0 601Z" fill="#f2e7d5"></path></svg>