<svg id="visual" viewBox="0 0 900 600" width="900" height="600" xmlns="http://www.w3.org/2000/svg" xmlns:xlink="http://www.w3.org/1999/xlink" version="1.1"><rect x="0" y="0" width="900" height="600" fill="#393E46"></rect><path d="M0 376L21.5 382C43 388 86 400 128.8 412.2C171.7 424.3 214.3 436.7 257.2 426.5C300 416.3 343 383.7 385.8 367.3C428.7 351 471.3 351 514.2 366.7C557 382.3 600 413.7 642.8 422.5C685.7 431.3 728.3 417.7 771.2 413.8C814 410 857 416 878.5 419L900 422L900 601L878.5 601C857 601 814 601 771.2 601C728.3 601 685.7 601 642.8 601C600 601 557 601 514.2 601C471.3 601 428.7 601 385.8 601C343 601 300 601 257.2 601C214.3 601 171.7 601 128.8 601C86 601 43 601 21.5 601L0 601Z" fill="#6d9886"></path><path d="M0 395L21.5 407.8C43 420.7 86 446.3 128.8 452.5C171.7 458.7 214.3 445.3 257.2 436.2C300 427 343 422 385.8 421.2C428.7 420.3 471.3 423.7 514.2 421C557 418.3 600 409.7 642.8 416C685.7 422.3 728.3 443.7 771.2 445.2C814 446.7 857 428.3 878.5 419.2L900 410L900 601L878.5 601C857 601 814 601 771.2 601C728.3 601 685.7 601 642.8 601C600 601 557 601 514.2 601C471.3 601 428.7 601 385.8 601C343 601 300 601 257.2 601C214.3 601 171.7 601 128.8 601C86 601 43 601 21.5 601L0 601Z" fill="#91ac93"></path><path d="M0 454L21.5 460.5C43 467 86 480 128.8 486.5C171.7 493 214.3 493 257.2 487.3C300 481.7 343 470.3 385.8 467.5C428.7 464.7 471.3 470.3 514.2 478.7C557 487 600 498 642.8 495.7C685.7 493.3 728.3 477.7 771.2 467.5C814 457.3 857 452.7 878.5 450.3L900 448L900 601L878.5 601C857 601 814 601 771.2 601C728.3 601 685.7 601 642.8 601C600 601 557 601 514.2 601C471.3 601 428.7 601 385.8 601C343 601 300 601 257.2 601C214.3 601 171.7 601 128.8 601C86 601 43 601 21.5 601L0 601Z" fill="#b4bfa4"></path><path d="M0 490L21.5 490C43 490 86 490 128.8 496.8C171.7 503.7 214.3 517.3 257.2 524.8C300 532.3 343 533.7 385.8 535.2C428.7 536.7 471.3 538.3 514.2 537.3C557 536.3 600 532.7 642.8 525.7C685.7 518.7 728.3 508.3 771.2 501C814 493.7 857 489.3 878.5 487.2L900 485L900 601L878.5 601C857 601 814 601 771.2 601C728.3 601 685.7 601 642.8 601C600 601 557 601 514.2 601C471.3 601 428.7 601 385.8 601C343 601 300 601 257.2 601C214.3 601 171.7 601 128.8 601C86 601 43 601 21.5 601L0 601Z" fill="#d5d2ba"></path><path d="M0 537L21.5 540.5C43 544 86 551 128.8 549.5C171.7 548 214.3 538 257.2 538.3C300 538.7 343 549.3 385.8 548.8C428.7 548.3 471.3 536.7 514.2 535.2C557 533.7 600 542.3 642.8 549.8C685.7 557.3 728.3 563.7 771.2 565.8C814 568 857 566 878.5 565L900 564L900 601L878.5 601C857 601 814 601 771.2 601C728.3 601 685.7 601 642.8 601C600 601 557 601 514.2 601C471.3 601 428.7 601 385.8 601C343 601 300 601 257.2 601C214.3 601 171.7 601 128.8 601C86 601 43 601 21.5 601L0 601Z" fill="#f2e7d5"></path></svg>