<svg id="visual" viewBox="0 0 900 600" width="900" height="600" xmlns="http://www.w3.org/2000/svg" xmlns:xlink="http://www.w3.org/1999/xlink" version="1.1"><rect x="0" y="0" width="900" height="600" fill="#393E46"></rect><path d="M0 369L21.5 377.3C43 385.7 86 402.3 128.8 415.3C171.7 428.3 214.3 437.7 257.2 439.3C300 441 343 435 385.8 429.8C428.7 424.7 471.3 420.3 514.2 412.7C557 405 600 394 642.8 384.3C685.7 374.7 728.3 366.3 771.2 375C814 383.7 857 409.3 878.5 422.2L900 435L900 601L878.5 601C857 601 814 601 771.2 601C728.3 601 685.7 601 642.8 601C600 601 557 601 514.2 601C471.3 601 428.7 601 385.8 601C343 601 300 601 257.2 601C214.3 601 171.7 601 128.8 601C86 601 43 601 21.5 601L0 601Z" fill="#fa7268"></path><path d="M0 395L21.5 396.3C43 397.7 86 400.3 128.8 408.7C171.7 417 214.3 431 257.2 435.5C300 440 343 435 385.8 438C428.7 441 471.3 452 514.2 460.2C557 468.3 600 473.7 642.8 474.2C685.7 474.7 728.3 470.3 771.2 464.8C814 459.3 857 452.7 878.5 449.3L900 446L900 601L878.5 601C857 601 814 601 771.2 601C728.3 601 685.7 601 642.8 601C600 601 557 601 514.2 601C471.3 601 428.7 601 385.8 601C343 601 300 601 257.2 601C214.3 601 171.7 601 128.8 601C86 601 43 601 21.5 601L0 601Z" fill="#f89574"></path><path d="M0 467L21.5 470.3C43 473.7 86 480.3 128.8 476.5C171.7 472.7 214.3 458.3 257.2 458C300 457.7 343 471.3 385.8 470.5C428.7 469.7 471.3 454.3 514.2 447.5C557 440.7 600 442.3 642.8 447.3C685.7 452.3 728.3 460.7 771.2 466.7C814 472.7 857 476.3 878.5 478.2L900 480L900 601L878.5 601C857 601 814 601 771.2 601C728.3 601 685.7 601 642.8 601C600 601 557 601 514.2 601C471.3 601 428.7 601 385.8 601C343 601 300 601 257.2 601C214.3 601 171.7 601 128.8 601C86 601 43 601 21.5 601L0 601Z" fill="#f4b48b"></path><path d="M0 490L21.5 497C43 504 86 518 128.8 518.5C171.7 519 214.3 506 257.2 505.2C300 504.3 343 515.7 385.8 517C428.7 518.3 471.3 509.7 514.2 507.2C557 504.7 600 508.3 642.8 511C685.7 513.7 728.3 515.3 771.2 513.7C814 512 857 507 878.5 504.5L900 502L900 601L878.5 601C857 601 814 601 771.2 601C728.3 601 685.7 601 642.8 601C600 601 557 601 514.2 601C471.3 601 428.7 601 385.8 601C343 601 300 601 257.2 601C214.3 601 171.7 601 128.8 601C86 601 43 601 21.5 601L0 601Z" fill="#f1cfad"></path><path d="M0 551L21.5 549.8C43 548.7 86 546.3 128.8 545.3C171.7 544.3 214.3 544.7 257.2 546.3C300 548 343 551 385.8 554.3C428.7 557.7 471.3 561.3 514.2 562.3C557 563.3 600 561.7 642.8 555C685.7 548.3 728.3 536.7 771.2 533.2C814 529.7 857 534.3 878.5 536.7L900 539L900 601L878.5 601C857 601 814 601 771.2 601C728.3 601 685.7 601 642.8 601C600 601 557 601 514.2 601C471.3 601 428.7 601 385.8 601C343 601 300 601 257.2 601C214.3 601 171.7 601 128.8 601C86 601 43 601 21.5 601L0 601Z" fill="#f2e7d5"></path></svg>